<svg width="39" height="54" viewBox="0 0 39 54" fill="none" xmlns="http://www.w3.org/2000/svg">
<g clip-path="url(#clip0_77_57)">
<path d="M0.413636 0.39375H38.4682V53.55H0.413636V0.39375ZM0 0H39V54H0V0Z" fill="#091C3E"/>
<path fill-rule="evenodd" clip-rule="evenodd" d="M20.2288 42.4875H23.2622V43.2H21.0561V44.2125H23.2031V44.8875H21.0561V45.9H23.2622V46.6125H20.2288V42.4875ZM30.0182 45.6562H30.8258C30.9243 45.9937 31.1803 46.0875 31.6531 46.0875C32.0076 46.0875 32.244 45.9562 32.244 45.7687C32.244 45.6375 32.1652 45.5625 31.8697 45.5062L31.1015 45.3375C30.4122 45.1875 30.0773 44.9062 30.0773 44.4562C30.0773 43.8187 30.6682 43.4812 31.5152 43.4812C32.4803 43.4812 32.9728 43.8937 33.0122 44.5312H32.2046C32.1258 44.1937 31.8303 44.1 31.4561 44.1C31.1015 44.1 30.9046 44.2125 30.9046 44.4C30.9046 44.5312 31.0425 44.6062 31.4364 44.6812L32.1258 44.8125C32.7758 44.9437 33.0909 45.2625 33.0909 45.675C33.0909 46.2562 32.5591 46.6875 31.6334 46.6875C30.6288 46.6875 30.1364 46.2562 30.0182 45.6562ZM29.7819 46.6125H28.9152C28.3637 46.6125 28.0682 46.2937 28.0682 45.8812V44.25H27.4576V43.5562H28.0682V42.6937H28.8758V43.5562H29.7819V44.25H28.8758V45.675C28.8758 45.8437 28.994 45.9187 29.1712 45.9187H29.7819V46.6125ZM27.1031 43.575V46.6125H26.2955V46.3312C26 46.5562 25.6455 46.6875 25.2712 46.6875C25.2319 46.6875 25.2122 46.6875 25.1925 46.6875C24.2667 46.6687 23.5379 45.9375 23.5576 45.0562C23.5773 44.175 24.3455 43.4812 25.2712 43.5C25.6455 43.5 26.0197 43.6312 26.2955 43.8562V43.575H27.1031ZM25.35 46.0125C25.8819 46.0125 26.3152 45.6 26.3152 45.0937C26.3152 45.075 26.3152 45.075 26.3152 45.075C26.3152 44.5687 25.8622 44.1562 25.3303 44.1562C24.7985 44.1562 24.3652 44.5875 24.3652 45.0937C24.3652 45.6 24.8182 46.0125 25.35 46.0125Z" fill="white"/>
<path fill-rule="evenodd" clip-rule="evenodd" d="M12.6652 39.675H11.6212V35.7187H12.6652V39.675ZM10.853 38.85V39.675H7.83941V35.7187H8.88335V38.85H10.853ZM24.6606 38.8687H26.7091V39.6937H23.6167V35.7375H26.65V36.5625H24.6606V37.2562H26.2758V38.0437H24.6606V38.8687ZM30.4515 35.7H31.0621V39.6562H30.0576V36.8812L29.1318 37.35L28.9349 36.5062L30.4515 35.7187V35.7ZM21.45 35.7187H22.494V37.9312C22.494 39.0937 21.7061 39.7125 20.5243 39.7125C19.3424 39.7125 18.5546 39.1125 18.5546 37.9312V35.7187H19.5985V38.0062C19.5985 38.4375 19.8743 38.8687 20.5243 38.8687C21.1743 38.8687 21.45 38.4375 21.45 38.0062V35.7187ZM18.4561 43.575H18.6727V44.1187H18.4167C18.0227 44.1187 17.7273 44.4187 17.7273 44.8875V46.5937H17.1167V43.5937H17.7273V43.9687C17.8652 43.725 18.1606 43.575 18.4561 43.575ZM13.197 45.15C13.1773 46.0125 12.4288 46.7062 11.5227 46.6875C11.1091 46.6875 10.6955 46.5187 10.4 46.2375V46.6125H9.78941V42.4875H10.4V43.9875C10.6955 43.7062 11.1091 43.5375 11.5227 43.5375C11.5621 43.5375 11.5818 43.5375 11.6015 43.5375C12.5076 43.5562 13.2364 44.2875 13.197 45.15ZM12.5864 45.0937C12.5667 44.5312 12.094 44.0625 11.4834 44.0625C10.8924 44.0812 10.4 44.5312 10.4 45.1125C10.4 45.6937 10.8924 46.1437 11.503 46.1437C12.094 46.1437 12.5667 45.675 12.5864 45.0937ZM16.6834 45.3H14.1227C14.2015 45.7875 14.6546 46.1625 15.1667 46.1625C15.5212 46.1812 15.8561 46.0125 16.0727 45.7312L16.5258 46.05C16.2106 46.4625 15.6985 46.7062 15.1667 46.6875C14.2212 46.6875 13.4924 46.0125 13.4924 45.1125C13.4924 44.25 14.2212 43.5562 15.1076 43.5562C16.0137 43.5562 16.6834 44.2125 16.6834 45.1125V45.3ZM16.0531 44.8312C15.9546 44.3812 15.5803 44.0625 15.1076 44.0625C14.6349 44.0625 14.2606 44.3812 14.1424 44.8312H16.0531ZM8.5879 42.4875H9.2379V46.6125H8.6076V46.2187C8.31214 46.5 7.8985 46.6687 7.46517 46.6687C6.53941 46.6687 5.83032 46.0312 5.83032 45.0562V42.4875H6.48032V45.0375C6.48032 45.6937 6.91366 46.125 7.52426 46.125C8.11517 46.125 8.5879 45.6937 8.5879 45.0375V42.4875ZM13.5909 37.6875C13.5909 36.5625 14.5364 35.6625 15.9546 35.6625C16.644 35.6625 17.1955 35.7937 17.4909 35.9437L17.2349 36.8062C16.8803 36.6562 16.5455 36.5625 15.994 36.5625C15.2061 36.5625 14.6743 37.0125 14.6743 37.7062C14.6743 38.4 15.2652 38.8875 15.994 38.8875C16.25 38.8875 16.4667 38.8312 16.644 38.7562V37.7437L17.6091 37.6312V39.2437C17.3924 39.4125 16.8606 39.7312 15.9349 39.7312C14.5561 39.7312 13.5909 38.8312 13.5909 37.6875Z" fill="white"/>
<path d="M32.953 20.1187C30.9636 24.1125 28.7379 27.5812 25.8424 30.9562C21.8045 31.5562 17.8848 31.4625 13.5515 31.0687L16.3879 26.7562C18.653 26.8687 20.9182 26.8875 23.1833 26.7C24.8182 24.6375 26.197 22.4062 27.4379 20.1C26.4924 18.3 25.4288 16.65 24.1485 14.9062L26.9651 10.6125C29.2894 13.5375 31.4167 16.6687 32.953 20.1187Z" fill="#CDFB0A"/>
<path d="M14.753 23.7L11.9364 27.9938C9.49394 24.9188 7.52424 21.9375 5.94849 18.5062C7.74091 14.7375 10.3015 10.8 13.0591 7.65C17.3727 7.18125 21.2727 7.125 25.35 7.5375L22.5136 11.85C20.2485 11.7375 17.9833 11.7187 15.7182 11.9062C14.0636 13.95 12.7045 16.2 11.4636 18.5062C12.4091 20.2875 13.4727 21.9 14.753 23.7Z" fill="#CDFB0A"/>
<path d="M19.4409 22.7813C21.4643 22.7813 23.1046 21.2199 23.1046 19.2938C23.1046 17.3677 21.4643 15.8063 19.4409 15.8063C17.4175 15.8063 15.7773 17.3677 15.7773 19.2938C15.7773 21.2199 17.4175 22.7813 19.4409 22.7813Z" fill="white"/>
</g>
<defs>
<clipPath id="clip0_77_57">
<rect width="39" height="54" fill="white"/>
</clipPath>
</defs>
</svg>
